<svg fill="#000000" xmlns="http://www.w3.org/2000/svg"  viewBox="0 0 24 24" width="96px" height="96px"><path d="M 4.085938 1 C 2.921875 1.015625 1.984375 2 2 3.15625 L 2 20.867188 C 2 21.234375 2.09375 21.59375 2.269531 21.910156 C 2.269531 21.914063 2.269531 21.914063 2.269531 21.914063 C 2.832031 22.925781 4.148438 23.296875 5.15625 22.71875 L 21.03125 13.683594 C 21.035156 13.679688 21.039063 13.679688 21.042969 13.675781 C 21.335938 13.503906 21.578125 13.257813 21.75 12.953125 C 22.265625 12.035156 21.949219 10.847656 21.035156 10.320313 C 21.035156 10.320313 21.03125 10.316406 21.03125 10.316406 L 5.15625 1.28125 C 4.828125 1.09375 4.457031 0.996094 4.085938 1 Z M 4.109375 3 C 4.128906 3 4.144531 3.003906 4.160156 3.015625 C 4.160156 3.015625 4.164063 3.015625 4.164063 3.015625 L 19.941406 12 L 7 19.371094 L 7 16.671875 L 11 14.390625 L 11 12.074219 L 7 14.34375 L 7 9.132813 C 7 9.0625 7.046875 9.003906 7.152344 9.007813 L 11 11.269531 L 11 9.351563 C 11 9.222656 11.035156 9.105469 11.066406 8.988281 L 8.15625 7.28125 C 7.832031 7.09375 7.492188 7.015625 7.085938 7 C 5.921875 7.015625 4.984375 7.980469 5 9.140625 L 5 15.480469 L 4.085938 15.996094 L 4 15.875 L 4 3.140625 C 4 3.136719 4 3.132813 4 3.128906 C 4 3.042969 4.046875 3 4.109375 3 Z M 12.304688 9 C 12.132813 9.003906 11.996094 9.15625 12 9.34375 L 12 14.65625 C 12 14.71875 12.011719 14.777344 12.042969 14.832031 C 12.125 14.992188 12.3125 15.046875 12.460938 14.953125 L 16.871094 12.242188 C 16.910156 12.21875 16.945313 12.183594 16.96875 12.140625 C 17.039063 12.003906 16.992188 11.835938 16.871094 11.757813 L 12.460938 9.046875 C 12.414063 9.015625 12.359375 9 12.304688 9 Z M 5 17.785156 L 5 20.507813 L 4.164063 20.984375 C 4.164063 20.984375 4.160156 20.984375 4.160156 20.984375 C 4.097656 21.023438 4.058594 21.011719 4.015625 20.9375 C 4.003906 20.917969 4 20.894531 4 20.875 C 4 20.871094 4 20.871094 4 20.867188 L 4 17.984375 C 4.039063 17.988281 4.078125 18 4.117188 18 C 4.421875 18 4.71875 17.917969 5 17.785156 Z"/></svg>